{"title":"A Bugs Life 1998 1080p x264-100xx4013rpm","uid":8929466,"size":4513391742,"categoryP":"video","categoryS":"hd___movies","magnet":"?xt=urn:btih:4f1cf4d691c40fa2b30609b4500dc4ea4088ff22&amp;dn=A+Bugs+Life+1998+1080p+x264-100xx4013rpm&amp;tr=udp%3A%2F%2Ftracker.openbittorrent.com%3A80&amp;tr=udp%3A%2F%2Fopen.demonii.com%3A1337&amp;tr=udp%3A%2F%2Ftracker.coppersurfer.tk%3A6969&amp;tr=udp%3A%2F%2Fexodus.desync.com%3A6969","seeders":0,"leechers":1,"uploader":"100x4013rpm","files":9,"time":1379443630,"description":"      Format : Matroska(Dual_Language)\n      Format version : Version 2\n      File size : 4.20 GiB\n      Duration : 1h 34mn\n      Overall bit rate : 6 340 Kbps\n \n      \n   Video #1\n   \n      Format : AVC\n      Format/Info : Advanced Video Codec\n      Format profile : &lt;a class=&quot;__cf_email__&quot; href=&quot;/cdn-cgi/l/email-protection&quot; data-cfemail=&quot;125a7b757a525e263c23&quot;&gt;[email&amp;#160;protected]&lt;/a&gt;&lt;script cf-hash='f9e31' type=&quot;text/javascript&quot;&gt;\n/* &lt;![CDATA[ */!function(){try{var t=&quot;currentScript&quot;in document?document.currentScript:function(){for(var t=document.getElementsByTagName(&quot;script&quot;),e=t.length;e--;)if(t[e].getAttribute(&quot;cf-hash&quot;))return t[e]}();if(t&amp;&amp;t.previousSibling){var e,r,n,i,c=t.previousSibling,a=c.getAttribute(&quot;data-cfemail&quot;);if(a){for(e=&quot;&quot;,r=parseInt(a.substr(0,2),16),n=2;a.length-n;n+=2)i=parseInt(a.substr(n,2),16)^r,e+=String.fromCharCode(i);e=document.createTextNode(e),c.parentNode.replaceChild(e,c)}}}catch(u){}}();/* ]]&gt; */&lt;/script&gt;\n      Format settings, CABAC : Yes\n      Format settings, ReFrames : 5 frames\n      Format settings, GOP : N=1\n      Muxing mode : Header stripping\n      Codec ID : V_MPEG4/ISO/AVC\n      Duration : 1h 34mn\n      Bit rate : 5 060 Kbps\n      Width : 1 920 pixels\n      Height : 816 pixels\n      Display aspect ratio : 2.35:1\n      Frame rate mode : Constant\n      Frame rate : 23.976 fps\n      Color space : YUV\n      Chroma subsampling : 4:2:0\n      Bit depth : 8 bits\n      Scan type : Progressive\n      Bits/(Pixel*Frame) : 0.135\n      Stream size : 3.27 GiB (78%)\n      Writing library : x264 core 67 r1137M 1fda882\n      Language : English\n      Default : Yes\n      Forced : No\n   \nAudio(1)\n     \n      Format : AC-3\n      Format/Info : Audio Coding 3\n      Mode extension : CM (complete main)\n      Format settings, Endianness : Big\n      Muxing mode : Header stripping\n      Codec ID : A_AC3\n      Duration : 1h 34mn\n      Bit rate mode : Constant\n      Bit rate : 640 Kbps\n      Channel(s) : 6 channels\n      Channel positions : Front: L C R, Side: L R, LFE\n      Sampling rate : 48.0 KHz\n      Bit depth : 16 bits\n      Compression mode : Lossy\n      Stream size : 434 MiB (10%)\n      Language : Arabic\n\n      \n   \nAudio(2)\n    \n      Format : AC-3\n      Format/Info : Audio Coding 3\n      Mode extension : CM (complete main)\n      Format settings, Endianness : Big\n      Muxing mode : Header stripping\n      Codec ID : A_AC3\n      Duration : 1h 34mn\n      Bit rate mode : Constant\n      Bit rate : 640 Kbps\n      Channel(s) : 6 channels\n      Channel positions : Front: L C R, Side: L R, LFE\n      Sampling rate : 48.0 KHz\n      Bit depth : 16 bits\n      Compression mode : Lossy\n      Stream size : 434 MiB (10%)\n      Language : English\n     \n     ","torrent":{"xt":"urn:btih:4f1cf4d691c40fa2b30609b4500dc4ea4088ff22","amp;dn":"A+Bugs+Life+1998+1080p+x264-100xx4013rpm","amp;tr":["udp%3A%2F%2Ftracker.openbittorrent.com%3A80","udp%3A%2F%2Fopen.demonii.com%3A1337","udp%3A%2F%2Ftracker.coppersurfer.tk%3A6969","udp%3A%2F%2Fexodus.desync.com%3A6969"],"infoHash":"4f1cf4d691c40fa2b30609b4500dc4ea4088ff22","infoHashBuffer":{"type":"Buffer","data":[79,28,244,214,145,196,15,162,179,6,9,180,80,13,196,234,64,136,255,34]},"announce":[],"urlList":[]}}